<?xml version="1.0" encoding="UTF-8" standalone="no"?><!DOCTYPE svg PUBLIC "-//W3C//DTD SVG 1.1//EN" "http://www.w3.org/Graphics/SVG/1.1/DTD/svg11.dtd"><svg width="100%" height="100%" viewBox="0 0 494 120" version="1.1" xmlns="http://www.w3.org/2000/svg" xmlns:xlink="http://www.w3.org/1999/xlink" xml:space="preserve" xmlns:serif="http://www.serif.com/" style="fill-rule:evenodd;clip-rule:evenodd;stroke-linejoin:round;stroke-miterlimit:1.41421;"><path d="M293.115,0l0,4.067l-7.155,0l0,24.28l-4.262,0l0,-24.28l-6.998,0l0,-4.067l18.415,0Z" style="fill:#fff;fill-rule:nonzero;"/><path d="M307.934,28.347l0,-28.347l4.262,0l0,12.043l14.192,0l0,-12.043l4.301,0l0,9.443c0,1.551 -0.007,3.128 -0.02,4.731c-0.013,1.602 -0.019,3.18 -0.019,4.731l0,9.442l-4.262,0l0,-12.237l-14.192,0l0,12.237l-4.262,0Z" style="fill:#fff;fill-rule:nonzero;"/><path d="M347.423,28.347l0,-28.347l18.611,0l0,3.871l-14.31,0l0,8.29l12.746,0l0,3.949l-12.746,0l0,8.288l14.857,0l0,3.949l-19.158,0Z" style="fill:#fff;fill-rule:nonzero;"/><path d="M279.001,99.232l3.87,0c1.043,0 1.916,-0.181 2.62,-0.547c0.704,-0.364 1.257,-0.808 1.662,-1.329c0.404,-0.522 0.69,-1.081 0.86,-1.682c0.169,-0.598 0.254,-1.134 0.254,-1.602c0,-0.495 -0.085,-1.036 -0.254,-1.622c-0.17,-0.587 -0.463,-1.135 -0.88,-1.643c-0.417,-0.509 -0.971,-0.932 -1.661,-1.271c-0.691,-0.338 -1.545,-0.508 -2.562,-0.508l-3.909,0l0,10.204Zm-4.301,14.154l0,-28.347l7.742,0c1.485,0 2.847,0.197 4.086,0.587c1.237,0.391 2.306,0.972 3.206,1.741c0.898,0.768 1.596,1.707 2.091,2.814c0.496,1.108 0.743,2.379 0.743,3.813c0,1.121 -0.17,2.235 -0.508,3.342c-0.339,1.109 -0.887,2.099 -1.642,2.972c-0.757,0.873 -1.747,1.584 -2.971,2.13c-1.226,0.548 -2.712,0.821 -4.458,0.821l-3.988,0l0,10.127l-4.301,0Z" style="fill:#fff;fill-rule:nonzero;"/><path d="M312.081,99.232l3.87,0c1.043,0 1.916,-0.175 2.621,-0.527c0.703,-0.352 1.256,-0.789 1.661,-1.31c0.404,-0.522 0.69,-1.081 0.86,-1.682c0.169,-0.598 0.254,-1.145 0.254,-1.641c0,-0.495 -0.085,-1.036 -0.254,-1.622c-0.17,-0.587 -0.463,-1.135 -0.88,-1.643c-0.417,-0.509 -0.971,-0.932 -1.661,-1.271c-0.691,-0.338 -1.545,-0.508 -2.562,-0.508l-3.909,0l0,10.204Zm-4.3,14.154l0,-28.347l7.741,0c1.485,0 2.847,0.197 4.086,0.587c1.237,0.391 2.306,0.972 3.206,1.741c0.898,0.768 1.596,1.707 2.092,2.814c0.495,1.108 0.742,2.379 0.742,3.813c0,0.782 -0.078,1.557 -0.235,2.326c-0.156,0.769 -0.41,1.511 -0.762,2.229c-0.352,0.717 -0.801,1.381 -1.349,1.993c-0.547,0.613 -1.212,1.128 -1.994,1.545c1.043,1.641 2.177,3.46 3.401,5.453c1.226,1.994 2.464,3.943 3.715,5.846l-5.122,0c-0.521,-0.808 -1.062,-1.656 -1.623,-2.541c-0.561,-0.886 -1.12,-1.766 -1.681,-2.639c-0.56,-0.874 -1.108,-1.734 -1.642,-2.582c-0.534,-0.847 -1.036,-1.635 -1.505,-2.365l-0.782,0l-3.988,0l0,10.127l-4.3,0Z" style="fill:#fff;fill-rule:nonzero;"/><path d="M344.781,99.273c0,1.467 0.273,2.847 0.82,4.14c0.546,1.294 1.3,2.42 2.26,3.38c0.96,0.96 2.08,1.72 3.359,2.28c1.28,0.56 2.641,0.84 4.08,0.84c1.44,0 2.794,-0.28 4.061,-0.84c1.265,-0.56 2.373,-1.32 3.319,-2.28c0.946,-0.96 1.693,-2.086 2.24,-3.38c0.547,-1.293 0.82,-2.687 0.82,-4.18c0,-1.466 -0.273,-2.846 -0.82,-4.14c-0.547,-1.293 -1.3,-2.42 -2.26,-3.38c-0.96,-0.96 -2.074,-1.719 -3.339,-2.28c-1.267,-0.56 -2.621,-0.84 -4.061,-0.84c-1.439,0 -2.8,0.28 -4.08,0.84c-1.279,0.561 -2.394,1.32 -3.34,2.28c-0.946,0.96 -1.693,2.094 -2.239,3.401c-0.547,1.306 -0.82,2.693 -0.82,4.159Zm-4.361,-0.04c0,-2 0.387,-3.9 1.16,-5.699c0.774,-1.801 1.833,-3.38 3.18,-4.741c1.347,-1.36 2.913,-2.433 4.7,-3.219c1.786,-0.787 3.706,-1.181 5.76,-1.181c2.026,0 3.94,0.394 5.74,1.181c1.8,0.786 3.373,1.859 4.72,3.219c1.347,1.361 2.414,2.94 3.2,4.741c0.786,1.799 1.181,3.699 1.181,5.699c0,2.054 -0.395,3.974 -1.181,5.76c-0.786,1.786 -1.853,3.354 -3.2,4.7c-1.347,1.347 -2.92,2.407 -4.72,3.18c-1.8,0.773 -3.714,1.16 -5.74,1.16c-2.054,0 -3.974,-0.387 -5.76,-1.16c-1.787,-0.773 -3.353,-1.833 -4.7,-3.18c-1.347,-1.346 -2.406,-2.914 -3.18,-4.7c-0.773,-1.786 -1.16,-3.706 -1.16,-5.76Z" style="fill:#fff;fill-rule:nonzero;"/><path d="M379.459,119.056l0,-4.005c1.814,-0.104 3.298,-0.726 4.451,-1.866c1.154,-1.14 1.731,-2.916 1.731,-5.326l0,-22.82l4.276,0l0,22.936c0,1.737 -0.26,3.28 -0.778,4.627c-0.519,1.347 -1.243,2.494 -2.177,3.441c-0.932,0.945 -2.041,1.671 -3.323,2.176c-1.283,0.506 -2.677,0.784 -4.18,0.837Z" style="fill:#fff;fill-rule:nonzero;"/><path d="M407.22,113.386l0,-28.347l18.61,0l0,3.872l-14.309,0l0,8.289l12.746,0l0,3.948l-12.746,0l0,8.288l14.857,0l0,3.95l-19.158,0Z" style="fill:#fff;fill-rule:nonzero;"/><path d="M462.901,111.633c-0.321,0.24 -0.768,0.5 -1.34,0.78c-0.574,0.28 -1.247,0.54 -2.021,0.78c-0.773,0.24 -1.634,0.44 -2.58,0.6c-0.946,0.16 -1.954,0.24 -3.019,0.24c-2.268,0 -4.301,-0.393 -6.101,-1.181c-1.8,-0.786 -3.326,-1.845 -4.58,-3.179c-1.254,-1.333 -2.214,-2.88 -2.88,-4.64c-0.667,-1.761 -1,-3.627 -1,-5.6c0,-2.186 0.394,-4.2 1.181,-6.04c0.786,-1.84 1.859,-3.426 3.22,-4.76c1.359,-1.333 2.953,-2.373 4.78,-3.12c1.826,-0.746 3.765,-1.12 5.819,-1.12c0.774,0 1.561,0.054 2.36,0.16c0.8,0.108 1.553,0.254 2.26,0.441c0.706,0.186 1.333,0.406 1.88,0.66c0.547,0.253 0.967,0.513 1.26,0.779c-0.213,0.32 -0.38,0.587 -0.5,0.8c-0.119,0.214 -0.246,0.434 -0.38,0.66c-0.134,0.227 -0.279,0.487 -0.439,0.78c-0.161,0.294 -0.374,0.68 -0.641,1.16c-0.347,-0.24 -0.753,-0.44 -1.22,-0.6c-0.467,-0.159 -0.954,-0.293 -1.46,-0.4c-0.507,-0.106 -1.019,-0.186 -1.54,-0.24c-0.519,-0.053 -0.993,-0.08 -1.42,-0.08c-1.547,0 -2.979,0.287 -4.3,0.86c-1.32,0.574 -2.459,1.347 -3.419,2.321c-0.96,0.973 -1.714,2.099 -2.26,3.38c-0.547,1.279 -0.821,2.613 -0.821,4c0,1.359 0.26,2.666 0.781,3.919c0.519,1.254 1.239,2.373 2.159,3.359c0.92,0.988 2.026,1.775 3.32,2.361c1.293,0.587 2.713,0.88 4.26,0.88c0.826,0 1.627,-0.08 2.4,-0.241c0.774,-0.159 1.473,-0.345 2.1,-0.559c0.627,-0.213 1.146,-0.427 1.561,-0.64c0.413,-0.214 0.66,-0.374 0.74,-0.48l1.84,3.96Z" style="fill:#fff;fill-rule:nonzero;"/><path d="M493.355,85.039l0,4.067l-7.155,0l0,24.28l-4.262,0l0,-24.28l-6.998,0l0,-4.067l18.415,0Z" style="fill:#fff;fill-rule:nonzero;"/><path d="M274.7,70.867l0,-28.347l16.969,0l0,3.949l-12.707,0l0,8.563l11.104,0l0,3.987l-11.104,0l0,11.848l-4.262,0Z" style="fill:#fff;fill-rule:nonzero;"/><path d="M306.174,70.867l0,-28.347l18.611,0l0,3.871l-14.31,0l0,8.289l12.746,0l0,3.949l-12.746,0l0,8.289l14.857,0l0,3.949l-19.158,0Z" style="fill:#fff;fill-rule:nonzero;"/><path d="M340.073,70.867l0,-28.347l4.3,0l0,24.28l14.075,0l0,4.067l-18.375,0Z" style="fill:#fff;fill-rule:nonzero;"/><rect x="372.172" y="42.52" width="4.262" height="28.347" style="fill:#fff;fill-rule:nonzero;"/><path d="M399.228,56.361l-8.875,-13.841l5.239,0c0.13,0.209 0.352,0.561 0.664,1.056c0.313,0.495 0.665,1.062 1.056,1.701c0.391,0.638 0.807,1.316 1.251,2.033c0.443,0.717 0.86,1.394 1.251,2.033c0.391,0.639 0.736,1.206 1.036,1.7c0.3,0.496 0.515,0.848 0.645,1.056c0.027,0.053 0.118,0.229 0.274,0.528c0.156,0.3 0.274,0.567 0.352,0.802c0.078,-0.235 0.196,-0.502 0.352,-0.802c0.156,-0.299 0.247,-0.475 0.273,-0.528c0.131,-0.208 0.345,-0.56 0.646,-1.056c0.299,-0.494 0.639,-1.061 1.016,-1.7c0.377,-0.639 0.776,-1.316 1.193,-2.033c0.416,-0.717 0.814,-1.395 1.192,-2.033c0.378,-0.639 0.717,-1.206 1.017,-1.701c0.299,-0.495 0.514,-0.847 0.645,-1.056l5.24,0c-0.158,0.235 -0.457,0.71 -0.9,1.427c-0.444,0.717 -0.972,1.558 -1.584,2.522c-0.612,0.965 -1.258,1.994 -1.935,3.089c-0.678,1.095 -1.324,2.125 -1.935,3.089c-0.613,0.964 -1.147,1.805 -1.603,2.522c-0.457,0.717 -0.749,1.192 -0.88,1.427l9.227,14.271l-5.317,0l-5.786,-9.306c-0.053,-0.078 -0.131,-0.195 -0.236,-0.352c-0.104,-0.156 -0.208,-0.332 -0.312,-0.527c-0.105,-0.196 -0.209,-0.385 -0.313,-0.567c-0.104,-0.183 -0.182,-0.326 -0.235,-0.431c-0.078,0.235 -0.183,0.483 -0.313,0.744c-0.13,0.26 -0.208,0.403 -0.234,0.429c-0.209,0.339 -0.606,0.984 -1.192,1.936c-0.587,0.952 -1.199,1.974 -1.838,3.069c-0.64,1.095 -1.251,2.118 -1.838,3.069c-0.586,0.952 -0.984,1.597 -1.192,1.936l-5.318,0l9.267,-14.506Z" style="fill:#fff;fill-rule:nonzero;"/><path d="M132.38,43.315c0.259,3.05 1.676,5.564 5.069,5.34c2.469,-0.163 4.081,-2.259 3.847,-4.743c-0.31,-3.301 -2.775,-4.938 -5.805,-5.847c-2.832,0.744 -3.311,2.897 -3.111,5.25Zm-90.503,-42.081c-3.662,0.171 -7.325,0.348 -10.989,0.51c-3.653,0.16 -7.336,0.065 -10.956,0.501c-10.671,1.285 -17.692,6.095 -16.505,17.79c0.3,2.948 0.381,5.923 0.472,8.888c0.168,5.511 1.448,11.13 -2.205,16.203c-1.267,1.761 -0.233,3.763 0.894,5.366c2.582,3.674 2.915,7.674 2.334,11.996c-1.696,12.598 -3.371,25.203 -4.765,37.837c-0.393,3.567 -0.412,8.527 4.458,8.441c4.082,-0.073 3.942,-4.775 3.707,-8.016c-0.641,-8.802 0.496,-17.338 2.324,-25.95c1.253,-5.907 1.702,-12.091 0.726,-18.214c-0.863,-5.413 0.411,-6.568 6.065,-6.739c5.739,-0.176 11.472,-0.752 17.188,-1.342c2.239,-0.23 5.088,-0.763 5.095,-3.534c0.008,-3.354 -3.261,-3 -5.55,-3.396c-1.185,-0.205 -2.438,-0.048 -3.658,-0.002c-4.537,0.173 -9.071,0.389 -13.608,0.548c-5.71,0.201 -6.707,-0.95 -6.515,-6.529c0.133,-3.827 -0.139,-7.67 -0.27,-11.505c-0.337,-9.907 1.546,-12.144 11.502,-13.539c1.208,-0.169 2.438,-0.181 3.651,-0.326c13.67,-1.634 27.344,-3.241 41.003,-4.967c1.878,-0.238 5.054,0.261 4.728,-2.717c-0.31,-2.84 -3.338,-2.575 -5.58,-2.488c-7.852,0.305 -15.701,0.707 -23.551,1.072c0.002,0.038 0.004,0.075 0.005,0.112Zm21.29,66.587c-0.204,-5.896 -3.424,-8.134 -8.964,-6.229c-8.875,3.051 -15.537,17.803 -11.558,26.117c1.021,2.133 2.382,5.262 5.789,3.815c8.411,-3.571 15.053,-14.468 14.733,-23.703Zm44.809,-50.513c0.672,4.937 -0.522,9.632 -1.311,14.473c-2.708,16.599 -6.827,33.211 -1.685,50.137c1.507,4.962 2.629,9.982 8.733,11.189c4.924,0.973 13.854,-2.875 16.324,-7.448c2.21,-4.093 4.903,-8.104 4.832,-13.11c-0.033,-2.353 0.93,-4.202 3.618,-4.164c2.698,0.038 3.514,1.989 3.535,4.285c0.015,1.556 0.046,3.253 -0.518,4.65c-2.978,7.378 -1.977,13.904 2.677,20.473c2.082,2.94 3.932,4.55 7.453,4.455c4.406,-0.118 8.677,-0.67 12.761,-2.477c3.354,-1.485 6.793,-2.64 10.545,-2.899c6.259,-0.431 9.16,-5.895 5.411,-10.945c-3.769,-5.077 -3.939,-10.631 -3.903,-16.38c0.013,-2.269 0.144,-4.966 3.345,-4.907c2.827,0.052 3.524,2.489 3.977,4.78c0.27,1.366 0.307,2.775 0.493,4.158c0.527,3.901 2.019,7.414 4.542,10.422c2.195,2.619 4.108,2.958 5.808,-0.692c3.773,-8.103 11,-13.874 14.957,-21.943c1.285,-2.622 3.75,-1.305 4.916,0.777c1.571,2.805 0.577,5.304 -1.481,7.615c-4.867,5.466 -10.05,10.69 -13.713,17.122c-0.086,0.152 -0.182,0.3 -0.291,0.435c-1.871,2.323 -7.028,2.306 -6.078,6.265c1.108,4.619 2.817,9.277 5.569,13.326c1.2,1.763 3.003,3.576 1.065,5.514c-2.367,2.367 -4.072,-0.181 -5.713,-1.545c-2.555,-2.125 -4.854,-4.441 -6.289,-7.584c-1.631,-3.572 -4.082,-4.774 -7.282,-1.532c-1.002,1.015 -2.108,2.179 -3.503,2.119c-6.966,-0.299 -12.51,3.997 -18.871,5.651c-9.828,2.557 -17.137,-0.431 -21.877,-9.388c-3.114,-5.884 -6.403,-6.659 -11.501,-2.345c-4.391,3.715 -9.697,5.391 -14.521,2.981c-5.383,-2.689 -11.396,-5.917 -11.513,-13.614c-0.023,-1.531 -0.385,-3.163 -1.012,-4.559c-1.551,-3.457 -5.327,-3.893 -6.715,-0.494c-4.699,11.506 -15.166,17.492 -23.751,25.157c-4.596,4.104 -10.809,3.668 -16.295,0.78c-4.807,-2.53 -9.873,-5.506 -12.584,-10.026c-4.009,-6.686 -7.479,-14.09 -3.962,-22.402c0.61,-1.442 1.108,-2.936 1.589,-4.428c3.022,-9.369 9.392,-15.181 18.83,-17.722c9.468,-2.548 16.883,4.344 14.624,13.76c-0.921,3.837 0.296,7.722 -0.614,11.451c-1.695,6.95 -5.593,12.213 -12.377,15.109c-2.306,0.985 -4.73,2.392 -3.672,5.427c1.112,3.194 4.035,2.6 6.689,2.44c5.605,-0.338 10.018,-3.065 13.597,-7.046c9.163,-10.192 16.834,-21.113 20.193,-34.892c2.192,-8.99 4.156,-17.74 4.815,-27.087c0.498,-7.078 1.097,-14.059 0.609,-21.142c-0.07,-1.019 0.091,-2.117 0.416,-3.089c0.675,-2.016 1.539,-4.139 4.118,-4.084c2.216,0.047 3.26,1.85 3.987,3.678c1.192,2.997 0.738,6.207 1.004,9.315Z" style="fill:#fff;fill-rule:nonzero;"/><rect x="243.604" y="0.002" width="2.75" height="113.386" style="fill:#fff;fill-rule:nonzero;"/></svg>